{
	"asset":{
		"generator":"Khronos glTF Blender I/O v4.2.70",
		"version":"2.0"
	},
	"scene":0,
	"scenes":[
		{
			"name":"Scene",
			"nodes":[
				8
			]
		}
	],
	"nodes":[
		{
			"name":"Plane.003",
			"scale":[
				0.23553000390529633,
				0.23553000390529633,
				0.23553000390529633
			],
			"translation":[
				0,
				0,
				-0.11619000136852264
			]
		},
		{
			"mesh":0,
			"name":"Sphere.001_0"
		},
		{
			"children":[
				1
			],
			"name":"Sphere.001"
		},
		{
			"mesh":1,
			"name":"Sphere.002_0"
		},
		{
			"children":[
				3
			],
			"name":"Sphere.002",
			"translation":[
				0.06413999944925308,
				-0.12347999960184097,
				0.03613999858498573
			]
		},
		{
			"mesh":2,
			"name":"Sphere.003_0"
		},
		{
			"children":[
				5
			],
			"name":"Sphere.003",
			"translation":[
				-0.06413999944925308,
				-0.12347999960184097,
				0.03613999858498573
			]
		},
		{
			"children":[
				0,
				2,
				4,
				6
			],
			"name":"Root"
		},
		{
			"children":[
				7
			],
			"name":"Sketchfab_model",
			"rotation":[
				-0.70710688829422,
				0,
				0,
				0.7071066498756409
			]
		}
	],
	"materials":[
		{
			"doubleSided":true,
			"name":"pumpkin",
			"pbrMetallicRoughness":{
				"baseColorTexture":{
					"index":0
				},
				"metallicFactor":0,
				"roughnessFactor":0.6000000238418579
			}
		},
		{
			"doubleSided":true,
			"name":"material",
			"pbrMetallicRoughness":{
				"baseColorTexture":{
					"index":1
				},
				"metallicFactor":0,
				"roughnessFactor":0.6000000238418579
			}
		}
	],
	"meshes":[
		{
			"name":"Sphere.001_0",
			"primitives":[
				{
					"attributes":{
						"POSITION":0,
						"NORMAL":1,
						"TEXCOORD_0":2
					},
					"indices":3,
					"material":0
				}
			]
		},
		{
			"name":"Sphere.002_0",
			"primitives":[
				{
					"attributes":{
						"POSITION":4,
						"NORMAL":5,
						"TEXCOORD_0":6
					},
					"indices":7,
					"material":1
				}
			]
		},
		{
			"name":"Sphere.003_0",
			"primitives":[
				{
					"attributes":{
						"POSITION":8,
						"NORMAL":9,
						"TEXCOORD_0":10
					},
					"indices":7,
					"material":1
				}
			]
		}
	],
	"textures":[
		{
			"sampler":0,
			"source":0
		},
		{
			"sampler":0,
			"source":1
		}
	],
	"images":[
		{
			"mimeType":"image/png",
			"name":"pumpkin_baseColor",
			"uri":"textures/pumpkin_baseColor.png"
		},
		{
			"mimeType":"image/png",
			"name":"material_baseColor",
			"uri":"textures/material_baseColor.png"
		}
	],
	"accessors":[
		{
			"bufferView":0,
			"componentType":5126,
			"count":10062,
			"max":[
				0.15849000215530396,
				0.15936000645160675,
				0.1666100025177002
			],
			"min":[
				-0.15849000215530396,
				-0.1546899974346161,
				-0.11649999767541885
			],
			"type":"VEC3"
		},
		{
			"bufferView":1,
			"componentType":5126,
			"count":10062,
			"type":"VEC3"
		},
		{
			"bufferView":2,
			"componentType":5126,
			"count":10062,
			"type":"VEC2"
		},
		{
			"bufferView":3,
			"componentType":5123,
			"count":39237,
			"type":"SCALAR"
		},
		{
			"bufferView":4,
			"componentType":5126,
			"count":504,
			"max":[
				0.012849999591708183,
				0.012849999591708183,
				0.012849999591708183
			],
			"min":[
				-0.012849999591708183,
				-0.012849999591708183,
				-0.012849999591708183
			],
			"type":"VEC3"
		},
		{
			"bufferView":5,
			"componentType":5126,
			"count":504,
			"type":"VEC3"
		},
		{
			"bufferView":6,
			"componentType":5126,
			"count":504,
			"type":"VEC2"
		},
		{
			"bufferView":7,
			"componentType":5123,
			"count":2880,
			"type":"SCALAR"
		},
		{
			"bufferView":8,
			"componentType":5126,
			"count":504,
			"max":[
				0.012849999591708183,
				0.012849999591708183,
				0.012849999591708183
			],
			"min":[
				-0.012849999591708183,
				-0.012849999591708183,
				-0.012849999591708183
			],
			"type":"VEC3"
		},
		{
			"bufferView":9,
			"componentType":5126,
			"count":504,
			"type":"VEC3"
		},
		{
			"bufferView":10,
			"componentType":5126,
			"count":504,
			"type":"VEC2"
		}
	],
	"bufferViews":[
		{
			"buffer":0,
			"byteLength":120744,
			"byteOffset":0,
			"target":34962
		},
		{
			"buffer":0,
			"byteLength":120744,
			"byteOffset":120744,
			"target":34962
		},
		{
			"buffer":0,
			"byteLength":80496,
			"byteOffset":241488,
			"target":34962
		},
		{
			"buffer":0,
			"byteLength":78474,
			"byteOffset":321984,
			"target":34963
		},
		{
			"buffer":0,
			"byteLength":6048,
			"byteOffset":400460,
			"target":34962
		},
		{
			"buffer":0,
			"byteLength":6048,
			"byteOffset":406508,
			"target":34962
		},
		{
			"buffer":0,
			"byteLength":4032,
			"byteOffset":412556,
			"target":34962
		},
		{
			"buffer":0,
			"byteLength":5760,
			"byteOffset":416588,
			"target":34963
		},
		{
			"buffer":0,
			"byteLength":6048,
			"byteOffset":422348,
			"target":34962
		},
		{
			"buffer":0,
			"byteLength":6048,
			"byteOffset":428396,
			"target":34962
		},
		{
			"buffer":0,
			"byteLength":4032,
			"byteOffset":434444,
			"target":34962
		}
	],
	"samplers":[
		{
			"magFilter":9729,
			"minFilter":9987
		}
	],
	"buffers":[
		{
			"byteLength":438476,
			"uri":"scene.bin"
		}
	]
}
