{
  "accessors": [
    {
      "bufferView": 2,
      "componentType": 5126,
      "count": 548,
      "max": [
        0.10707300156354904,
        0.28880199790000916,
        0.5189459919929504
      ],
      "min": [
        -0.17228299379348755,
        0.20384399592876434,
        0.43398699164390564
      ],
      "type": "VEC3"
    },
    {
      "bufferView": 2,
      "byteOffset": 6576,
      "componentType": 5126,
      "count": 548,
      "max": [
        1.0,
        1.0,
        1.0
      ],
      "min": [
        -1.0,
        -1.0,
        -1.0
      ],
      "type": "VEC3"
    },
    {
      "bufferView": 3,
      "componentType": 5126,
      "count": 548,
      "max": [
        1.0,
        0.11095400154590607,
        1.0,
        1.0
      ],
      "min": [
        -1.0,
        -0.11096200346946716,
        -1.0,
        -1.0
      ],
      "type": "VEC4"
    },
    {
      "bufferView": 1,
      "componentType": 5126,
      "count": 548,
      "max": [
        1.0,
        1.0
      ],
      "min": [
        0.0,
        0.0
      ],
      "type": "VEC2"
    },
    {
      "bufferView": 0,
      "componentType": 5125,
      "count": 3072,
      "type": "SCALAR"
    },
    {
      "bufferView": 2,
      "byteOffset": 13152,
      "componentType": 5126,
      "count": 23673,
      "max": [
        0.34257200360298157,
        0.8332970142364502,
        0.6343759894371033
      ],
      "min": [
        -0.4077889919281006,
        -0.5148599743843079,
        -0.15520800650119781
      ],
      "type": "VEC3"
    },
    {
      "bufferView": 2,
      "byteOffset": 297228,
      "componentType": 5126,
      "count": 23673,
      "max": [
        0.9999825954437256,
        0.9991836547851563,
        0.9999898672103882
      ],
      "min": [
        -0.9999841451644897,
        -0.999953031539917,
        -0.9998380541801453
      ],
      "type": "VEC3"
    },
    {
      "bufferView": 3,
      "byteOffset": 8768,
      "componentType": 5126,
      "count": 23673,
      "max": [
        1.0,
        0.8532350063323975,
        0.9999989867210388,
        1.0
      ],
      "min": [
        -0.9999989867210388,
        -0.8531230092048645,
        -0.9999939799308777,
        1.0
      ],
      "type": "VEC4"
    },
    {
      "bufferView": 1,
      "byteOffset": 4384,
      "componentType": 5126,
      "count": 23673,
      "max": [
        0.9844310283660889,
        0.8677039742469788
      ],
      "min": [
        0.015557000413537025,
        0.09679000079631805
      ],
      "type": "VEC2"
    },
    {
      "bufferView": 0,
      "byteOffset": 12288,
      "componentType": 5125,
      "count": 140544,
      "type": "SCALAR"
    },
    {
      "bufferView": 2,
      "byteOffset": 581304,
      "componentType": 5126,
      "count": 10050,
      "max": [
        0.9378290176391602,
        1.0,
        0.8175849914550781
      ],
      "min": [
        -0.9378290176391602,
        -1.0,
        -0.8175849914550781
      ],
      "type": "VEC3"
    },
    {
      "bufferView": 2,
      "byteOffset": 701904,
      "componentType": 5126,
      "count": 10050,
      "max": [
        1.0,
        1.0,
        1.0
      ],
      "min": [
        -1.0,
        -1.0,
        -1.0
      ],
      "type": "VEC3"
    },
    {
      "bufferView": 3,
      "byteOffset": 387536,
      "componentType": 5126,
      "count": 10050,
      "max": [
        0.9999600052833557,
        1.0,
        1.0,
        1.0
      ],
      "min": [
        -0.9998940229415894,
        -0.9995830059051514,
        -0.9999750256538391,
        -1.0
      ],
      "type": "VEC4"
    },
    {
      "bufferView": 1,
      "byteOffset": 193768,
      "componentType": 5126,
      "count": 10050,
      "max": [
        0.9853739738464355,
        0.999783992767334
      ],
      "min": [
        0.00021600000036414713,
        0.00021600000036414713
      ],
      "type": "VEC2"
    },
    {
      "bufferView": 0,
      "byteOffset": 574464,
      "componentType": 5125,
      "count": 57888,
      "type": "SCALAR"
    }
  ],
  "asset": {
    "extras": {
      "author": "Kenn090 (https://sketchfab.com/kenn090)",
      "license": "CC-BY-4.0 (http://creativecommons.org/licenses/by/4.0/)",
      "source": "https://sketchfab.com/3d-models/killer-klown-80311104f2234eb8952e61034d829039",
      "title": "Killer Klown"
    },
    "generator": "Sketchfab-16.12.0",
    "version": "2.0"
  },
  "bufferViews": [
    {
      "buffer": 0,
      "byteLength": 806016,
      "name": "floatBufferViews",
      "target": 34963
    },
    {
      "buffer": 0,
      "byteLength": 274168,
      "byteOffset": 806016,
      "byteStride": 8,
      "name": "floatBufferViews",
      "target": 34962
    },
    {
      "buffer": 0,
      "byteLength": 822504,
      "byteOffset": 1080184,
      "byteStride": 12,
      "name": "floatBufferViews",
      "target": 34962
    },
    {
      "buffer": 0,
      "byteLength": 548336,
      "byteOffset": 1902688,
      "byteStride": 16,
      "name": "floatBufferViews",
      "target": 34962
    }
  ],
  "buffers": [
    {
      "byteLength": 2451024,
      "uri": "scene.bin"
    }
  ],
  "images": [
    {
      "uri": "textures/Accessories_baseColor.jpeg"
    },
    {
      "uri": "textures/Accessories_metallicRoughness.png"
    },
    {
      "uri": "textures/Accessories_normal.jpeg"
    },
    {
      "uri": "textures/Skin_baseColor.jpeg"
    },
    {
      "uri": "textures/Skin_metallicRoughness.png"
    },
    {
      "uri": "textures/Skin_normal.jpeg"
    },
    {
      "uri": "textures/Eyes_baseColor.jpeg"
    },
    {
      "uri": "textures/Eyes_metallicRoughness.png"
    },
    {
      "uri": "textures/Eyes_normal.jpeg"
    }
  ],
  "materials": [
    {
      "doubleSided": true,
      "name": "Accessories",
      "normalTexture": {
        "index": 2
      },
      "occlusionTexture": {
        "index": 1
      },
      "pbrMetallicRoughness": {
        "baseColorTexture": {
          "index": 0
        },
        "metallicRoughnessTexture": {
          "index": 1
        }
      }
    },
    {
      "doubleSided": true,
      "name": "Skin",
      "normalTexture": {
        "index": 5
      },
      "occlusionTexture": {
        "index": 4
      },
      "pbrMetallicRoughness": {
        "baseColorTexture": {
          "index": 3
        },
        "metallicRoughnessTexture": {
          "index": 4
        }
      }
    },
    {
      "doubleSided": true,
      "name": "Eyes",
      "normalTexture": {
        "index": 8
      },
      "pbrMetallicRoughness": {
        "baseColorTexture": {
          "index": 6
        },
        "metallicRoughnessTexture": {
          "index": 7
        }
      }
    }
  ],
  "meshes": [
    {
      "name": "defaultMaterial",
      "primitives": [
        {
          "attributes": {
            "NORMAL": 1,
            "POSITION": 0,
            "TANGENT": 2,
            "TEXCOORD_0": 3
          },
          "indices": 4,
          "material": 2,
          "mode": 4
        }
      ]
    },
    {
      "name": "defaultMaterial",
      "primitives": [
        {
          "attributes": {
            "NORMAL": 6,
            "POSITION": 5,
            "TANGENT": 7,
            "TEXCOORD_0": 8
          },
          "indices": 9,
          "material": 1,
          "mode": 4
        }
      ]
    },
    {
      "name": "defaultMaterial",
      "primitives": [
        {
          "attributes": {
            "NORMAL": 11,
            "POSITION": 10,
            "TANGENT": 12,
            "TEXCOORD_0": 13
          },
          "indices": 14,
          "material": 0,
          "mode": 4
        }
      ]
    }
  ],
  "nodes": [
    {
      "children": [
        1
      ],
      "matrix": [
        1.0,
        0.0,
        0.0,
        0.0,
        0.0,
        2.220446049250313e-16,
        -1.0,
        0.0,
        0.0,
        1.0,
        2.220446049250313e-16,
        0.0,
        0.0,
        0.0,
        0.0,
        1.0
      ],
      "name": "Sketchfab_model"
    },
    {
      "children": [
        2,
        4,
        6
      ],
      "matrix": [
        1.0,
        0.0,
        0.0,
        0.0,
        0.0,
        -4.371139006309477e-08,
        0.999999999999999,
        0.0,
        0.0,
        -0.999999999999999,
        -4.371139006309477e-08,
        0.0,
        0.0,
        0.0,
        0.0,
        1.0
      ],
      "name": "Collada visual scene group"
    },
    {
      "children": [
        3
      ],
      "name": "g"
    },
    {
      "mesh": 0,
      "name": "defaultMaterial"
    },
    {
      "children": [
        5
      ],
      "name": "g"
    },
    {
      "mesh": 1,
      "name": "defaultMaterial"
    },
    {
      "children": [
        7
      ],
      "name": "g"
    },
    {
      "mesh": 2,
      "name": "defaultMaterial"
    }
  ],
  "samplers": [
    {
      "magFilter": 9729,
      "minFilter": 9987,
      "wrapS": 10497,
      "wrapT": 10497
    }
  ],
  "scene": 0,
  "scenes": [
    {
      "name": "Sketchfab_Scene",
      "nodes": [
        0
      ]
    }
  ],
  "textures": [
    {
      "sampler": 0,
      "source": 0
    },
    {
      "sampler": 0,
      "source": 1
    },
    {
      "sampler": 0,
      "source": 2
    },
    {
      "sampler": 0,
      "source": 3
    },
    {
      "sampler": 0,
      "source": 4
    },
    {
      "sampler": 0,
      "source": 5
    },
    {
      "sampler": 0,
      "source": 6
    },
    {
      "sampler": 0,
      "source": 7
    },
    {
      "sampler": 0,
      "source": 8
    }
  ]
}
